<?xml version="1.0" encoding="UTF-8"?>
<!DOCTYPE svg PUBLIC "-//W3C//DTD SVG 1.1//EN" "http://www.w3.org/Graphics/SVG/1.1/DTD/svg11.dtd">
<!-- Creator: CorelDRAW 2021 (64-Bit) -->
<svg xmlns="http://www.w3.org/2000/svg" xml:space="preserve" width="5in" height="5in" version="1.1" style="shape-rendering:geometricPrecision; text-rendering:geometricPrecision; image-rendering:optimizeQuality; fill-rule:evenodd; clip-rule:evenodd"
viewBox="0 0 5000 5000"
 xmlns:xlink="http://www.w3.org/1999/xlink"
 xmlns:xodm="http://www.corel.com/coreldraw/odm/2003">
 <defs>
  <style type="text/css">
   <![CDATA[
    .fil2 {fill:#05442F}
    .fil0 {fill:#392D75}
    .fil1 {fill:url(#id2)}
    .fil3 {fill:url(#id3)}
   ]]>
  </style>
    <mask id="id0">
  <linearGradient id="id1" gradientUnits="userSpaceOnUse" x1="2362.86" y1="2148.54" x2="2035.94" y2="1595.3">
   <stop offset="0" style="stop-opacity:1; stop-color:white"/>
   <stop offset="1" style="stop-opacity:0; stop-color:white"/>
  </linearGradient>
     <rect style="fill:url(#id1)" x="1661.09" y="1388.13" width="1943.28" height="2223.75"/>
    </mask>
  <linearGradient id="id2" gradientUnits="userSpaceOnUse" x1="949.09" y1="3419.19" x2="4055.43" y2="1590.44">
   <stop offset="0" style="stop-opacity:1; stop-color:#B8C93D"/>
   <stop offset="0.521569" style="stop-opacity:1; stop-color:#1A9457"/>
   <stop offset="0.658824" style="stop-opacity:1; stop-color:#6A4B97"/>
   <stop offset="0.8" style="stop-opacity:1; stop-color:#3761AB"/>
   <stop offset="0.870588" style="stop-opacity:1; stop-color:#0FBCE7"/>
   <stop offset="1" style="stop-opacity:1; stop-color:#3761AB"/>
  </linearGradient>
  <linearGradient id="id3" gradientUnits="userSpaceOnUse" x1="1803.77" y1="1994.63" x2="3287.18" y2="3377.18">
   <stop offset="0" style="stop-opacity:1; stop-color:#189B6F"/>
   <stop offset="0.278431" style="stop-opacity:1; stop-color:#FECB22"/>
   <stop offset="0.490196" style="stop-opacity:1; stop-color:#FD893E"/>
   <stop offset="0.760784" style="stop-opacity:1; stop-color:#CC3BA1"/>
   <stop offset="1" style="stop-opacity:1; stop-color:#6A4B97"/>
  </linearGradient>
 </defs>
 <g id="Layer_x0020_1">
  <metadata id="CorelCorpID_0Corel-Layer"/>
  <g id="_2158266086832">
   <path class="fil0" d="M3348.31 2377.04c10.02,6.04 12.24,-2.19 -2.31,33.28 -7.05,17.19 -10.78,24.23 -18.96,40.42l-107.81 229.85 0 -0c-3.43,2.52 -136.56,268.81 -149.78,294.59 39.74,94.9 80.21,194.51 135.41,272.22 29.69,49.59 81.89,107.82 141.79,113.73 223.04,24.7 197.12,-240.83 78.63,-361.63 -5.78,-5.98 -10.31,-8.61 -17.04,-15.67 -80.98,-84.93 -175.57,-191.49 -188.07,-293.46 250.13,-26.91 756.15,-295.85 850.61,-618.23l-81.57 17.56c-28.67,18.45 -53,48.32 -83.61,62.92 -118.83,56.72 -231.93,105.55 -361.58,144.99 -32.94,10.02 -61.64,18.19 -95.1,27.44l-100.61 52.01z"/>
   <path class="fil1" d="M1697.17 2321.67l69.55 -21.79c35.55,-16.93 18.07,-102 1,-127.06 -36.37,-53.42 -87.37,-139.78 -136.65,-201.65l-39.79 -42.22c-7.13,-70.05 -150.28,-161.53 -15.36,-267.41 74.15,-36.7 129.15,18.09 161.47,60.83l194.1 297.24c29.89,70.05 91.97,165.57 126.1,233.95 16.03,32.1 155.97,289.87 155.97,290.11 -55.2,7.41 -85.2,15.7 -139.28,25.51l-440.48 87.3c-37.03,3.11 -154.41,40.06 -191.08,54.01 -64.06,19.49 -124.13,39.12 -186.27,60.87 -64.83,22.69 -115.38,45.12 -175.06,72.2 -32.16,14.6 -141.7,74.85 -157.33,77.31 27.96,-44.74 68.94,-154.43 134.72,-223.44 181.29,-190.22 392.48,-296.19 638.39,-375.77zm2584.94 -650.24c-4.99,-81.05 -58.33,-218.23 -188.87,-251.26 -144.74,-36.61 -259.54,12.53 -336.86,140.68l-113.11 227.05 -71.49 138.37c-100.02,165.74 -467.34,524.71 -789.13,529.58 -131.67,-231.07 -272.12,-490.13 -397.38,-724.92 -46.8,-78.39 -82.31,-163.82 -153.74,-229.68 -61.31,-56.53 -164.73,-103.38 -271.72,-111.7 -130.36,-10.15 -227.34,40.26 -298.62,90.7 -90.98,64.39 -118.31,127.45 -170.24,213.18 -24.55,40.52 -42.89,83.06 -63.72,124.74 -193.51,377.61 -385.39,753.88 -576.28,1132.87 -83,164.76 -216.72,372 -62.22,545.42 134.73,151.24 376.27,121.05 473.95,-75.2 42.52,-85.43 83.99,-161.19 125.51,-244.91 185.86,-374.78 406.83,-509.67 845.34,-597.82 -0.19,10.04 346.26,582.79 351.76,592.77 7.63,26.25 31.94,63.73 45.81,87.96 15.93,27.85 34.86,57.55 51.3,85.18 26.55,44.66 64.93,141.04 109.55,167.78 57.11,47.96 120.34,77.19 208.78,92.27 57.19,9.75 84.15,9.75 141.33,0 39.64,-6.76 90.95,-16.41 118.8,-38.17 32.44,-8.16 95.27,-53.69 117.69,-76.26 139.98,-140.93 175.66,-298.39 225.73,-369.41 138.65,-276.04 277.64,-550.63 418.08,-825.89 44.7,-89.41 183.45,-342.56 233.25,-488.87 10.05,-29.52 28.44,-102.82 26.5,-134.43zm-1470.67 835.04l0 -18.95c25.61,0 44.09,-4.93 67.52,-10.46 24.71,-5.83 49.64,-9.45 70.31,-14.17l331.7 -71.22c24.22,-5.16 46.75,-12.58 67.35,-14.63 286.26,-85.4 446.31,-148.62 716.72,-303.68 -74.59,304.5 -571.28,567.88 -851.66,617.63l-1.15 17.48c7.37,104.9 112.45,193.05 196.02,280.69 6.74,7.06 11.27,9.69 17.04,15.67 109.06,112.95 135.44,368.8 -82.69,348.2 -49.24,-4.86 -77.28,-35.9 -99.2,-62.29 -65,-78.25 -125.91,-232.38 -174.71,-320.39l-257.25 -463.89z"/>
   <path class="fil2" d="M1586.27 1997.43c49.28,61.87 132.82,134.24 169.19,187.65 17.06,25.07 43.33,94.38 7.78,111.31 -477.83,139.08 -697.2,287.57 -840.43,625.73 15.63,-2.46 126.42,-61.3 158.58,-75.9 59.69,-27.09 110.23,-50.26 175.06,-72.95 62.15,-21.75 122.22,-39.47 186.27,-58.96 39.2,-11.93 138.43,-44.78 168.53,-51.76 3.41,-39.09 113.18,-238.63 140.08,-279.85 8.39,-18.34 12.85,-23.48 22.56,-42.43l143.33 -305.17c6.78,-12.43 2.06,-9.88 14.26,-15.5l-174.02 -317.33c-32.31,-42.75 -107.4,-77.46 -181.55,-40.75 -136.91,79.52 -67.87,263.67 10.35,335.9z"/>
   <path class="fil3" style="mask:url(#id0)" d="M2745.99 2391.2c-120.8,-214.03 -247.02,-447.15 -360.72,-660.28 -46.8,-78.39 -82.31,-163.82 -153.74,-229.68 -61.31,-56.53 -164.73,-103.38 -271.72,-111.7 -130.36,-10.15 -227.34,40.26 -298.62,90.7 88.92,170.63 169.89,349.59 258.05,520.61 235.16,456.14 486.53,916.73 748.85,1357.85 26.55,44.66 79.22,126.74 123.85,153.48 57.11,47.96 120.34,77.19 208.78,92.27 57.19,9.75 84.15,9.75 141.33,0 39.64,-6.76 90.95,-16.41 118.8,-38.17 32.44,-8.16 95.27,-53.69 117.69,-76.26 139.98,-140.93 175.66,-298.39 225.73,-369.41 -63.78,124.65 -127.43,249.53 -261.67,232.42 -49.24,-4.86 -77.28,-35.9 -99.2,-62.29 -65,-78.25 -125.91,-232.38 -174.71,-320.39l-137.87 -248.62 -184.82 -330.52z"/>
  </g>
 </g>
</svg>
