<svg xmlns="http://www.w3.org/2000/svg" xmlns:xlink="http://www.w3.org/1999/xlink" xml:space="preserve" width="199.612" height="42.269" style="shape-rendering:geometricPrecision;text-rendering:geometricPrecision;image-rendering:optimizeQuality;fill-rule:evenodd;clip-rule:evenodd" viewBox="0 0 2079.29 440.31"><defs><linearGradient id="id1" x1="163.39" x2="195.95" y1="325.98" y2="78.28" gradientUnits="userSpaceOnUse"><stop offset="0" style="stop-opacity:1;stop-color:#29a794"/><stop offset="1" style="stop-opacity:1;stop-color:#b7cf5e"/></linearGradient><linearGradient id="id2" x1="1049.11" x2="1145.3" y1="245.68" y2="22.18" gradientUnits="userSpaceOnUse"><stop offset="0" style="stop-opacity:1;stop-color:#3d9fc2"/><stop offset="1" style="stop-opacity:1;stop-color:#9e5d8b"/></linearGradient><linearGradient xlink:href="#id2" id="id3" x1="1049.11" x2="1145.3" y1="245.68" y2="22.18" gradientUnits="userSpaceOnUse"/><linearGradient id="id4" x1="233.58" x2="271.07" y1="180.86" y2="371.4" gradientUnits="userSpaceOnUse"><stop offset="0" style="stop-opacity:1;stop-color:#b7cf5e"/><stop offset="1" style="stop-opacity:1;stop-color:#29a794"/></linearGradient><linearGradient id="id5" x1="1003.85" x2="941.61" y1="406.94" y2="292.36" gradientUnits="userSpaceOnUse"><stop offset="0" style="stop-opacity:1;stop-color:#fed956"/><stop offset="1" style="stop-opacity:1;stop-color:#e8735b"/></linearGradient><clipPath id="id0"><path d="M.3 393.03c-3.38 14.89 23.37 12.22 36.93 12.3 9.87.06 20.07.15 29.93-.14 5.43-.16 7.67.04 10.81-2.78.96-.86 5.28-7.39 6.38-9.43l36.19-83.63 20.52-45.52c13.4-26.14 25.17-61.58 33.98-79.9.81-1.68.3-.8 1.15-2.17 1.85-2.99.41-1.16 2.33-2.96l2.64 6c2.72 9.19 5.74 17.69 9.02 26.52 5.5 14.8 23.93 27.04 33.84 34.2l45.33 32.29 41.76 32.89c5.63 4.26 8.12 9.19 14.51 10.12-.96-6.11-27.86-65.9-30.3-68.96L216.63 79.25c-3.43-7.77-20.23-43.63-23.94-45.7-6.55-11.54-19.32-16.44-27.2-1.91L13.43 364.35c-2.95 6.46-11.83 22.9-13.14 28.7zm293.17 10.87c7.98 3.87 59.87 2.15 67.41-1.17.26-1.98.57-4.86-.65-7.83l-17.17-41.56c-.65-1.56-1.73-2.72-2.51-3.76-7.31-9.83-19.97-14.78-31.24-21.31-14.44-8.37-28.1-16.17-43.34-24.24-17.06-9.03-77.44-44.95-93.06-43.22-2.56 7.7-33.98 58.36-26.87 70.44 7.24 12.29 85.23-.46 104.06 6.22 16.98 6.02 24.9 63.24 43.38 66.43z"/></clipPath><style>.fil0{fill:#000}</style></defs><g id="Layer_x0020_1"><g id="_2592513080480"><path d="M560.37 139.02c-19.69-5.73-28.37-18.46-66.23-22.51-71.47-7.66-139.64 40.56-153.57 115.07-19.33 103.41 67.2 196.29 173.17 171.75 46.83-10.85 80.3-43.66 96.59-80.84C629.5 278.73 622.27 208.18 622.4 156l.43-131.93C623.02 6.08 618.8.53 600.9.12c-47.66-1.08-40.3 3.94-40.38 49.12-.05 29.81-.73 60.02-.16 89.78zm-90.15 42.81c-43.12 5.32-74.83 41.88-68.67 91.82 4.92 39.95 43.81 75.35 91.19 68.11 38.65-5.91 74.46-44.59 68.6-91.38-5.08-40.52-43.43-74.44-91.11-68.55zm771.52-63.95c-106.27 16.83-149.9 135.59-98.81 222.92 12.88 22.02 37.54 45.74 64.7 56.19 31.52 12.13 76.13 9.28 112.26 8.92 49.02-.49 62.22 7.22 62.64-26.94.1-8.55 1.16-21.24-2.52-28.69-6.74-13.66-36.55-8.02-52.28-7.83-20.28.24-40.98.52-61.24.15-88.07-1.63-100.03-91.26-60.26-138.53 34.19-40.63 111.95-25.67 118.69 13.29 3.65 21.13-14.62 16.19-45.85 16.2-19.89 0-39.03-2.7-45.78 13.24-6.65 15.73-2.61 40.59 9.31 46.22 8.42 3.98 44.88 2.27 56.88 2.22 20.96-.09 36.85 1.92 54.22-6.57 82.71-40.39 21.06-191.86-111.96-170.79m694.58-.47c-145.7 19.83-162.27 221.17-40.52 277.48 31.37 14.51 71.78 10.94 108.59 10.95 56.15 0 78.25 12.39 68.61-51.75-2.56-17.05-25.98-12.04-48.2-11.82-61.77.6-113.81 9.03-140.35-41.23-17.03-32.24-8.2-67.65 8.97-92.69 14.8-21.58 52.3-37.05 89.74-23.33 32.2 11.8 40.42 44.25 22.64 47.73-21.95 4.3-70.33-6.69-81.1 8.42-8.01 11.22-6.67 39.76 1.96 49.15 7.4 8.05 42.1 4.77 54.18 4.79 17.37.03 40.74 2.59 55.19-3.83 25.96-11.54 47.24-37.68 42.63-76.34-7.4-62.07-69.41-107.44-142.34-97.52zm-1215.49 2.94c-49.93 4.94-90.78 59.19-70.18 117.78 7.51 21.36 27.13 41.51 47.5 49.75 25.72 10.41 74.18-.13 90.51 8.39 10.46 5.46 17.73 19.64 10.32 32.76-7.21 12.77-16.85 13.37-34.85 13.45-27.87.14-73.16-2.74-98.89.39-16.42 2-12.85 18.94-12.64 36.08.22 17.67 3.21 26.65 21.95 26.91 32.74.44 66.2.21 98.98.04 16.33-.09 28.04-1.35 41.62-7.42 56.2-25.11 73.04-114.54 9.76-155.65-23.18-15.06-57.07-10.2-87.55-11.18-40.61-1.31-32.39-46.11-4.68-48.91 19.91-2.02 85.65 2.8 97.69-1.36 13.47-4.66 13.28-19.41 11.67-36-1.57-16.25-6.4-24.95-22.88-25.66-27.91-1.2-71.35-2.06-98.33.62z" class="fil0"/><path d="M1647.05 121.17c-26.51 5.89-45.38 22.92-55.53 42.68-24.24 47.18-2.5 112.67 50.55 126.86 24.02 6.43 75.3-4.63 87.8 11.03 7.8 9.76 7.08 26.72-1.8 34.78-11 10-73.4 5.99-91.06 6.14-12.37.11-38.41-2.9-45.63 4.78-6.11 6.5-5.35 33.49-3.95 43.69 2.11 15.34 17.77 14.81 33.87 14.61 32.23-.41 67.11 1.46 98.85-.33 85.76-4.83 111.09-128.08 30.59-166.91-28.09-13.55-63.94-.72-90.64-8.35-19.66-5.61-29.79-47.56 19.28-47.8 17.11-.08 86.55 3.27 94.38-4.21 6.52-6.24 6.78-32.91 4.79-44.08-2.83-15.89-17.63-14.33-34.8-14.48-24.18-.22-76.01-3.01-96.72 1.59zm-134.27-.49c-61 6.22-101.87 54.15-103.94 119.57-1.13 35.95-.56 74.3-.47 110.43.03 13.36-3.43 43.4 4.94 51.04 6.82 6.24 41.88 6.72 49.63.91 10.41-7.82 6.93-32.12 6.84-47.25-.11-18.84-.14-37.68-.04-56.52.18-34.18-4.48-74.76 15.79-96.54 8.1-8.7 18.63-17.56 35.31-19.73 17.87-2.33 41.92 5.85 46.93-9.59 3.35-10.33 3.4-41.74-4.35-48.58-8.22-7.24-38.09-5.04-50.65-3.76z" class="fil0"/><path d="M864.41 122.57c-2.01 14.12 10.22 42.41 16.76 51.4 8.86 12.18 24.82 22.52 36.7 32.4 12.59 10.48 60.74 55.48 80.13 58.01-1.57-8.65-31.61-75.72-37.05-88.44-6.3-14.73-12.69-29.65-19.32-43.42-9-18.7-16.33-13.76-50.35-13.77-13.52-.02-17.45-1.39-26.88 3.81z" style="fill:url(#id3)"/><path d="M945.45 257.33c-8.17-6.12-18.37-14.29-26.54-20.41-4.08-4.08-22.46-20.41-26.54-20.41 28.58 67.37 61.24 134.74 87.78 204.15 12.25 26.54 24.5 26.54 36.75-2.04l49-122.48-8.17 2.04c-57.16 2.04-79.61-16.33-112.28-40.83z" style="fill:url(#id5)"/><path d="M1007.71 255.09c-.67 2.96-1.74 6.16-1.71 9.18l.32 2.86c17.41 5.19 42.21 2.3 57.4-4.59 16.3-7.4 24.03-17.53 32.16-33.96 10.69-21.61 58.13-120.03 67-151.74 3.88-4.7 15.2-33.12 19.08-41.52 7.52-16.27 13.66-32.57-12.72-32.78-13.62-.11-48.26-3.16-56.72 4.12z" style="fill:url(#id2)"/><path d="M.3 393.03c-3.38 14.89 23.37 12.22 36.93 12.3 9.87.06 20.07.15 29.93-.14 5.43-.16 7.67.04 10.81-2.78.96-.86 5.28-7.39 6.38-9.43l36.19-83.63 20.52-45.52c13.4-26.14 25.17-61.58 33.98-79.9.81-1.68.3-.8 1.15-2.17 1.85-2.99.41-1.16 2.33-2.96l2.64 6c2.72 9.19 5.74 17.69 9.02 26.52 5.5 14.8 23.93 27.04 33.84 34.2l45.33 32.29 41.76 32.89c5.63 4.26 8.12 9.19 14.51 10.12-.96-6.11-27.86-65.9-30.3-68.96L216.63 79.25c-3.43-7.77-20.23-43.63-23.94-45.7-6.55-11.54-19.32-16.44-27.2-1.91L13.43 364.35c-2.95 6.46-11.83 22.9-13.14 28.7zm293.17 10.87c7.98 3.87 59.87 2.15 67.41-1.17.26-1.98.57-4.86-.65-7.83l-17.17-41.56c-.65-1.56-1.73-2.72-2.51-3.76-7.31-9.83-19.97-14.78-31.24-21.31-14.44-8.37-28.1-16.17-43.34-24.24-17.06-9.03-77.44-44.95-93.06-43.22-2.56 7.7-33.98 58.36-26.87 70.44 7.24 12.29 85.23-.46 104.06 6.22 16.98 6.02 24.9 63.24 43.38 66.43z" style="fill:url(#id1)"/><g style="clip-path:url(#id0)"><path id="_1" d="M230.11 257.54C208.63 205.23 188.34 89.77 184.46 3.8l70.44 144.37 80.41 182.32-19.04-8.2-86.17-64.75z" style="fill:url(#id4)"/></g><path fill="none" d="M.3 393.03c-3.38 14.89 23.37 12.22 36.93 12.3 9.87.06 20.07.15 29.93-.14 5.43-.16 7.67.04 10.81-2.78.96-.86 5.28-7.39 6.38-9.43l36.19-83.63 20.52-45.52c13.4-26.14 25.17-61.58 33.98-79.9.81-1.68.3-.8 1.15-2.17 1.85-2.99.41-1.16 2.33-2.96l2.64 6c2.72 9.19 5.74 17.69 9.02 26.52 5.5 14.8 23.93 27.04 33.84 34.2l45.33 32.29 41.76 32.89c5.63 4.26 8.12 9.19 14.51 10.12-.96-6.11-27.86-65.9-30.3-68.96L216.63 79.25c-3.43-7.77-20.23-43.63-23.94-45.7-6.55-11.54-19.32-16.44-27.2-1.91L13.43 364.35c-2.95 6.46-11.83 22.9-13.14 28.7zm293.17 10.87c7.98 3.87 59.87 2.15 67.41-1.17.26-1.98.57-4.86-.65-7.83l-17.17-41.56c-.65-1.56-1.73-2.72-2.51-3.76-7.31-9.83-19.97-14.78-31.24-21.31-14.44-8.37-28.1-16.17-43.34-24.24-17.06-9.03-77.44-44.95-93.06-43.22-2.56 7.7-33.98 58.36-26.87 70.44 7.24 12.29 85.23-.46 104.06 6.22 16.98 6.02 24.9 63.24 43.38 66.43z"/></g></g></svg>